# xmcd
#
# Track frame offsets: 
#        150
#        14530
#        29005
#        42385
#        56227
#        69165
#        82835
#        96500
#        111135
#        123122
#        137887
#        149965
#        161737
#        175205
#        189457
#        203312
#        217557
#        230687
#        244330
#        257937
#        268882
#        280300
#        293410
#        307367
#
# Disc length: 4276 seconds
#
# Revision: 3
# Processed by: cddbd v1.5.2PL0 Copyright (c) Steve Scherf et al.
# Submitted via: ExactAudioCopy v1.1
#
DISCID=7310b218
DTITLE=John Lee Hooker - The Legendary Modern recordings
DYEAR=1993
DGENRE=Blues
TTITLE0=Boogie Chillen (mono)
TTITLE1=Sally Mae (mono)
TTITLE2=Boogie Boogie (mono)
TTITLE3=Hobo Blues (mono)
TTITLE4=Weeping Willow Boogie (mono)
TTITLE5=Drifting From Door To Door (mono)
TTITLE6=Crawling Kingsnake (mono)
TTITLE7=Women In My Life (mono)
TTITLE8=Howlin' Wolf (mono)
TTITLE9=Playing The Races (mono)
TTITLE10=Let Your Daddy Ride (mono)
TTITLE11=Queen Bee (mono)
TTITLE12=Wednesday Evening (mono)
TTITLE13=I'm In The Mood (mono)
TTITLE14=Tease Me, Baby (mono)
TTITLE15=Turn Over A New Leaf (mono)
TTITLE16=Rock House Boogie (mono)
TTITLE17=Too Much Boogie (mono)
TTITLE18=Need Somebody (mono)
TTITLE19=Gotta Boogie (mono)
TTITLE20=Jump Me One More Time (mono)
TTITLE21=Down Child (mono)
TTITLE22=Bad Boy (mono)
TTITLE23=Please Take Me Back (mono)
EXTD=
EXTT0=
EXTT1=
EXTT2=
EXTT3=
EXTT4=
EXTT5=
EXTT6=
EXTT7=
EXTT8=
EXTT9=
EXTT10=
EXTT11=
EXTT12=
EXTT13=
EXTT14=
EXTT15=
EXTT16=
EXTT17=
EXTT18=
EXTT19=
EXTT20=
EXTT21=
EXTT22=
EXTT23=
PLAYORDER=
